<svg height="256" viewBox="0 0 256 256" width="256" xmlns="http://www.w3.org/2000/svg"><g fill="none" stroke-miterlimit="10" stroke-width="0" transform="matrix(2.81 0 0 2.81 1.407 1.407)"><path d="m90 38.735c0-2.198-1.788-3.986-3.986-3.986-.498 0-.969.102-1.409.27l-8.036-11.037c.546-.682.887-1.536.887-2.476 0-2.198-1.788-3.986-3.987-3.986-1.031 0-1.964.404-2.672 1.049l-11.557-7.327c.114-.37.193-.756.193-1.163 0-2.198-1.788-3.986-3.986-3.986-1.833 0-3.365 1.251-3.828 2.939l-15.328.004c-.464-1.686-1.995-2.936-3.828-2.936-2.198 0-3.986 1.788-3.986 3.986 0 .383.072.746.173 1.097l-12.047 7.351c-.714-.673-1.67-1.094-2.727-1.094-2.198 0-3.986 1.788-3.986 3.986 0 1.112.459 2.116 1.195 2.84l-6.143 10.984c-.308-.076-.625-.129-.956-.129-2.198 0-3.986 1.788-3.986 3.986s1.788 3.986 3.986 3.986c.013 0 .026-.004.039-.004l2.667 9.401c-1.153.699-1.932 1.954-1.932 3.398 0 2.198 1.788 3.986 3.986 3.986 1.471 0 2.745-.811 3.435-2l6.25 1.641c.021 2.052 1.603 3.719 3.612 3.908l2.27 12.904c-1.348.64-2.289 2.004-2.289 3.593 0 2.198 1.788 3.986 3.986 3.986s3.986-1.788 3.986-3.986c0-.734-.213-1.413-.56-2.004l9.59-9.808c.862.568 1.893.902 3.001.902 1.748 0 3.303-.827 4.305-2.108l6.345 3.224c-.054.261-.082.53-.082.806 0 2.198 1.788 3.986 3.987 3.986 2.198 0 3.986-1.788 3.986-3.986 0-1.031-.404-1.964-1.049-2.672l5.021-7.921c.37.114.756.193 1.163.193 1.97 0 3.599-1.44 3.919-3.32l8.631-.855c.575 1.496 2.017 2.564 3.712 2.564 2.199 0 3.987-1.788 3.987-3.986 0-1.488-.829-2.772-2.04-3.457l2.193-8.767c2.153-.045 3.895-1.807 3.895-3.976zm-81.254 19.043c-1.041 0-1.889-.848-1.889-1.889s.848-1.889 1.889-1.889 1.889.848 1.889 1.889-.848 1.889-1.889 1.889zm0-5.875c-.013 0-.026.004-.039.004l-2.667-9.401c.609-.37 1.104-.896 1.443-1.526l5.726 1.305c-.002.061-.009.12-.009.181 0 3.045 2.477 5.523 5.522 5.523.042 0 .082-.005.124-.006l1.731 7.977c-.669.351-1.221.879-1.6 1.531l-6.25-1.641c-.022-2.18-1.797-3.947-3.981-3.947zm-4.76-14.684c1.041 0 1.889.847 1.889 1.889s-.848 1.889-1.889 1.889-1.889-.848-1.889-1.889.847-1.889 1.889-1.889zm82.028-.372c1.041 0 1.889.847 1.889 1.889 0 1.041-.848 1.889-1.889 1.889s-1.889-.848-1.889-1.889c.001-1.042.848-1.889 1.889-1.889zm-5.519 14.392-7.55-10.047c.403-.489.704-1.058.872-1.687l8.342.191c.268 1.073.969 1.965 1.909 2.497l-2.193 8.768c-.487.01-.951.107-1.38.278zm1.466 5.587c-1.041 0-1.889-.848-1.889-1.889s.848-1.889 1.889-1.889c1.042 0 1.89.848 1.89 1.889s-.848 1.889-1.89 1.889zm-25.381 15.996c-1.042 0-1.89-.848-1.89-1.889s.848-1.889 1.89-1.889c1.041 0 1.889.848 1.889 1.889s-.848 1.889-1.889 1.889zm-42.703-53.284c1.041 0 1.889.847 1.889 1.889s-.848 1.889-1.889 1.889-1.889-.848-1.889-1.889.847-1.889 1.889-1.889zm17.943-5.531.816 7.756c-1.933.503-3.545 1.802-4.459 3.531l-10.341-3.6c.006-.09.027-.176.027-.268 0-.383-.072-.747-.173-1.098l12.047-7.35c.565.534 1.283.898 2.083 1.029zm23.627-5.817c1.041 0 1.889.848 1.889 1.889s-.848 1.889-1.889 1.889-1.889-.847-1.889-1.889.849-1.889 1.889-1.889zm-22.984 3.785c-1.041 0-1.889-.847-1.889-1.889s.847-1.889 1.889-1.889c1.041 0 1.889.848 1.889 1.889s-.848 1.889-1.889 1.889zm25.657 1.041 11.557 7.328c-.108.349-.18.712-.187 1.095l-8.437 2.152c-.854-1.951-2.633-3.403-4.781-3.804l.134-5.851c.651-.163 1.234-.483 1.714-.92zm-16.095 45.054c-2.266 0-4.214 1.385-5.044 3.353l-10.608-2.198c-.049-.77-.308-1.481-.735-2.071l5.233-6.477c.763.405 1.633.637 2.556.637 2.658 0 4.876-1.906 5.367-4.422h5.573c.283 2.087 1.392 3.909 2.99 5.132l-3.596 6.333c-.546-.184-1.128-.287-1.736-.287zm10.048-20.012c-1.8 0-3.455.62-4.776 1.65l-7.182-7.02c.792-1.096 1.275-2.426 1.325-3.867l7.363-.847c.777 2.736 3.292 4.748 6.272 4.748 1.62 0 3.1-.597 4.242-1.578l6.193 5.22c-.303.603-.489 1.274-.489 1.993 0 .257.034.505.076.751l-6.361 2.732c-1.362-2.261-3.835-3.782-6.663-3.782zm0 2.098c3.136 0 5.688 2.552 5.688 5.688s-2.552 5.688-5.688 5.688-5.687-2.552-5.687-5.688 2.551-5.688 5.687-5.688zm-17.666-16.529c2.728 0 4.948 2.22 4.948 4.948s-2.22 4.948-4.948 4.948-4.948-2.22-4.948-4.948 2.22-4.948 4.948-4.948zm-.98 18.844c1.86 0 3.373 1.513 3.373 3.373s-1.513 3.373-3.373 3.373-3.373-1.513-3.373-3.373c.001-1.86 1.514-3.373 3.373-3.373zm21.649-11.847c-2.442 0-4.428-1.987-4.428-4.428s1.986-4.428 4.428-4.428 4.428 1.987 4.428 4.428c-.001 2.442-1.987 4.428-4.428 4.428zm-25.185 3.352c1.224 1.025 2.798 1.645 4.516 1.645 1.593 0 3.059-.538 4.241-1.433l7.184 7.022c-.767 1.03-1.284 2.254-1.465 3.586h-5.573c-.491-2.516-2.709-4.422-5.367-4.422-2.224 0-4.139 1.337-4.993 3.247l-4.199-.964c.002-.064.01-.126.01-.19 0-1.025-.286-1.982-.774-2.805zm39.612 1.998c1.315 0 2.384 1.069 2.384 2.383s-1.069 2.384-2.384 2.384c-1.314 0-2.383-1.07-2.383-2.384s1.069-2.383 2.383-2.383zm-47.355 6.492c0 1.889-1.537 3.425-3.425 3.425s-3.425-1.537-3.425-3.425 1.536-3.425 3.425-3.425 3.425 1.537 3.425 3.425zm1.62 2.235 4.198.965c-.002.06-.009.118-.009.178 0 1.337.484 2.562 1.283 3.513l-5.23 6.473c-.427-.188-.895-.291-1.384-.318l-1.73-7.971c1.279-.55 2.308-1.57 2.872-2.84zm50.111-7.292c-.437-2.016-2.231-3.532-4.376-3.532-.992 0-1.9.334-2.643.882l-6.191-5.219c.587-.979.932-2.12.932-3.343 0-.194-.013-.384-.029-.574l8.449-2.155c.687 1.203 1.967 2.025 3.449 2.025.498 0 .969-.102 1.409-.27l8.036 11.037c-.315.394-.553.845-.702 1.339zm-51.466 20.179c1.041 0 1.889.848 1.889 1.889s-.847 1.889-1.889 1.889c-1.041 0-1.889-.848-1.889-1.889s.848-1.889 1.889-1.889zm51.056-37.97c1.042 0 1.89.847 1.89 1.889 0 1.041-.848 1.889-1.89 1.889-1.041 0-1.889-.848-1.889-1.889.001-1.042.849-1.889 1.889-1.889zm-21.849-8.489c.363 1.32 1.382 2.358 2.69 2.751l-.134 5.861c-3.072.427-5.462 2.997-5.609 6.149l-7.365.847c-.785-2.897-3.37-5.053-6.479-5.192l-.815-7.754c1.163-.455 2.05-1.44 2.384-2.657zm-25.611 66.903c1.041 0 1.889.848 1.889 1.89 0 1.041-.847 1.889-1.889 1.889-1.041 0-1.889-.848-1.889-1.889 0-1.043.848-1.89 1.889-1.89zm.371-2.06-2.27-12.903c.795-.377 1.437-1.008 1.838-1.789l10.611 2.199c0 .021-.003.041-.003.061 0 1.152.36 2.22.97 3.102l-9.59 9.81c-.471-.262-.995-.427-1.556-.48zm15.645-9.059c-1.86 0-3.373-1.513-3.373-3.373s1.513-3.373 3.373-3.373 3.373 1.513 3.373 3.373-1.513 3.373-3.373 3.373zm23.675-8.477c-1.041 0-1.889-.848-1.889-1.889s.848-1.889 1.889-1.889 1.889.848 1.889 1.889-.848 1.889-1.889 1.889zm0-5.874c-.888 0-1.701.302-2.364.795l-4.556-3.579c.681-1.156 1.078-2.498 1.078-3.934 0-.721-.106-1.415-.29-2.078l6.362-2.733c.818 1.089 2.108 1.805 3.572 1.805.631 0 1.23-.134 1.776-.371l7.545 10.041c-.394.507-.669 1.104-.781 1.763l-8.631.855c-.574-1.495-2.016-2.564-3.711-2.564zm-51.823-27.149c1.362 0 2.564-.688 3.283-1.733l10.327 3.596c-.079.422-.125.855-.125 1.299 0 1.412.422 2.725 1.14 3.829l-6.421 5.687c-.932-.717-2.094-1.148-3.358-1.148-2.253 0-4.191 1.357-5.049 3.296l-5.718-1.303c-.045-1.042-.481-1.983-1.179-2.668l6.145-10.984c.307.076.624.129.955.129zm33.618 38.127c0-1.657-.743-3.141-1.91-4.145l3.594-6.33c.896.36 1.871.564 2.894.564 2.103 0 4.01-.841 5.413-2.201l4.542 3.57c-.202.477-.314 1.001-.314 1.55 0 1.031.404 1.964 1.049 2.672l-5.021 7.921c-.37-.114-.756-.193-1.163-.193-1.168 0-2.209.513-2.939 1.316l-6.358-3.229c.136-.476.213-.976.213-1.495z" fill="rgb(0,0,0)"/></g></svg>