<svg id="Layer_1" enable-background="new 0 0 512 512" viewBox="0 0 512 512" xmlns="http://www.w3.org/2000/svg"><path d="m496.97 264.16-8.16-78.87c-.07-.64-.24-1.27-.5-1.85l-27.69-61.31c-.67-1.49-1.93-2.64-3.47-3.19l-165.16-58.35c-.55-.19-1.12-.31-1.7-.33l-97.91-4.94c-.86-.05-1.72.1-2.52.42l-124.59 49.43c-1.2.48-2.21 1.32-2.89 2.42l-46.48 75.16.01.01c-.98 1.58-1.21 3.57-.48 5.38l41.05 102.6c.92 2.29 3.13 3.77 5.57 3.77.16 0 .33-.01.5-.02l60.67-5.02c3.34 9.87 12.68 17 23.66 17 4.41 0 8.55-1.15 12.14-3.16l17.25 51.39c.8 2.39 3.01 4.02 5.53 4.09l75.97 2.05 106.63 94.35c1.12.99 2.54 1.51 3.98 1.51.83 0 1.66-.17 2.45-.52 2.15-.96 3.54-3.09 3.55-5.45l.46-90.45 60.33-7.97c2.64-.35 4.73-2.39 5.14-5.02l6.78-43.27 47.43-34.38c1.74-1.26 2.67-3.35 2.45-5.48zm-21.37-79.71-56.48 52.51c-3.93-2.58-8.62-4.08-13.66-4.08-.77 0-1.53.04-2.29.11l-24.89-71.65c6.37-4.16 10.74-11.16 11.29-19.18l62.02-10.85zm-348.44 81.74-94.56-78.45 69.01-27.57c4.01 5.57 10.25 9.43 17.41 10.25l16.9 88.65c-3.44 1.68-6.43 4.13-8.76 7.12zm260.34-135.86c-3.88-8.76-12.66-14.89-22.84-14.89-4.75 0-9.19 1.33-12.97 3.64l-38.55-38.29 118.42 41.84zm30.94 127.52c0 7.15-5.82 12.97-12.98 12.97s-12.97-5.82-12.97-12.97 5.82-12.98 12.97-12.98 12.98 5.83 12.98 12.98zm-36.84-7.37-46.54-2.67c-1.09-5.83-4.21-10.95-8.59-14.6l33.05-68.36c1.66.35 3.38.54 5.15.54.77 0 1.53-.04 2.29-.11l24.89 71.65c-4.83 3.16-8.51 7.93-10.25 13.55zm-162.68-88.06c0-7.15 5.82-12.98 12.98-12.98s12.97 5.82 12.97 12.98-5.82 12.98-12.97 12.98-12.98-5.83-12.98-12.98zm37.87 1.96 84.94-14.08c1.57 3.63 3.98 6.82 6.98 9.32l-33.05 68.36c-1.66-.35-3.38-.54-5.15-.54-4.12 0-8 1.01-11.42 2.78l-46.74-53.5c2.5-3.55 4.08-7.78 4.44-12.34zm53.73 101.01c-7.15 0-12.98-5.82-12.98-12.98s5.82-12.97 12.98-12.97 12.97 5.82 12.97 12.97-5.81 12.98-12.97 12.98zm-9.38 10.16c1.93.79 3.99 1.34 6.12 1.62l6.93 61.77-43.15-21.93zm63.53-122.16c-7.15 0-12.98-5.82-12.98-12.97s5.82-12.98 12.98-12.98c7.15 0 12.97 5.82 12.97 12.98s-5.82 12.97-12.97 12.97zm-21.43-25.8c-1.94 3.22-3.16 6.92-3.47 10.87l-84.94 14.08c-3.84-8.87-12.67-15.09-22.93-15.09-1.12 0-2.22.08-3.3.22l-27.52-69.91 86.32 4.36zm-125.8 14.48c-3.78 2.7-6.79 6.41-8.6 10.75l-62.1-9.49c-.42-4.65-2.12-8.94-4.75-12.51l48.22-57.9zm-82.59 3.54c0 7.15-5.82 12.98-12.98 12.98s-12.97-5.82-12.97-12.98 5.82-12.97 12.97-12.97 12.98 5.81 12.98 12.97zm12.79 110.93-16.71-87.67c6.32-2.47 11.39-7.43 14-13.67l62.1 9.49c.53 5.82 3.06 11.08 6.91 15.06l-51.58 82.18c-4.07-3.23-9.17-5.22-14.72-5.39zm22.43 15.68 54.03-86.08c2.46.81 5.08 1.26 7.8 1.26 4.12 0 8-1.01 11.42-2.78l46.74 53.5c-2.57 3.67-4.18 8.05-4.47 12.8zm117.71-9.51c.95 2.1 2.19 4.04 3.66 5.78l-31.55 43.47-79.6-29.42zm-19.98 66.11 49.03 24.92 34.04 73.46-83.73-74.08zm59.45 18.87-7.51-66.93 43.12 75.82-.34 67.19zm.46-77.18c3.06-2.91 5.39-6.58 6.67-10.71l46.54 2.67c2.17 11.58 12.34 20.37 24.54 20.37 3.96 0 7.71-.93 11.04-2.58l16.36 19.39-62.15 46.5zm-256.17-154.92 100.86-40.02-39.62 47.57c-3.3-1.61-6.99-2.51-10.9-2.51-13.77 0-24.97 11.2-24.97 24.97 0 1.16.09 2.3.24 3.42l-61.47 24.56zm-36.2 90.01 86.7 71.93-56.07 4.64zm111.54 88.87c-7.15 0-12.97-5.82-12.97-12.97s5.82-12.98 12.97-12.98 12.98 5.82 12.98 12.98-5.83 12.97-12.98 12.97zm21.65-.55c.46-.8.88-1.62 1.25-2.47l86.17 31.86-.69 25.47-68.95-1.86zm222.32 52.14 42.49-31.8-4.19 26.74zm51.69-53.56-16.87-20c2.99-4.12 4.76-9.18 4.76-14.65 0-4.39-1.14-8.52-3.14-12.11l50.82-47.25 6.56 63.45z" fill="rgb(0,0,0)"/></svg>