<svg id="Layer_1" height="512" viewBox="0 0 64 64" width="512" xmlns="http://www.w3.org/2000/svg"><path d="m1 61h62v2h-62z"/><path d="m53 5c-1.93 0-3.5 1.57-3.5 3.5h2c0-.83.67-1.5 1.5-1.5s1.5.67 1.5 1.5-.67 1.5-1.5 1.5c-.55 0-1 .45-1 1v2.5h2v-1.65c1.44-.43 2.5-1.77 2.5-3.35 0-1.93-1.57-3.5-3.5-3.5z"/><path d="m52 15h2v2h-2z"/><path d="m53 1c-5.51 0-10 4.49-10 10s4.49 10 10 10 10-4.49 10-10-4.49-10-10-10zm0 18c-4.41 0-8-3.59-8-8s3.59-8 8-8 8 3.59 8 8-3.59 8-8 8z"/><path d="m43 59v-18c0-.55-.45-1-1-1h-6c-.55 0-1 .45-1 1v18h2v-17h4v17z"/><path d="m29 59v-24c0-.55-.45-1-1-1h-6c-.55 0-1 .45-1 1v24h2v-23h4v23z"/><path d="m9 47h4v12h2v-13c0-.55-.45-1-1-1h-6c-.55 0-1 .45-1 1v13h2z"/><path d="m23.24 24.11 13.49 3.85c.35.1.73 0 .98-.25l6-6-1.41-1.41-5.58 5.58-13.43-3.84c-.32-.09-.67-.02-.92.2l-13 11 1.29 1.53 12.59-10.66z"/><path d="m49 41h2v4h-2z"/><path d="m55 41h2v4h-2z"/><path d="m49 34h2v4h-2z"/><path d="m55 34h2v4h-2z"/><path d="m49 48h2v4h-2z"/><path d="m55 48h2v4h-2z"/><path d="m55 55h2v4h-2z"/><path d="m49 55h2v4h-2z"/><path d="m57 27c0-.55-.45-1-1-1h-6c-.55 0-1 .45-1 1v4h2v-3h4v3h2z"/></svg>