<?xml version="1.0" encoding="UTF-8"?>
<svg xmlns="http://www.w3.org/2000/svg" id="Layer_1" data-name="Layer 1" viewBox="0 0 64 64" width="512" height="512"><path d="M2,53A10,10,0,1,0,12,43,10.01177,10.01177,0,0,0,2,53Zm10-8a8,8,0,1,1-8,8A8.00917,8.00917,0,0,1,12,45Z"/><path d="M12.59961,53.7998A.99947.99947,0,0,0,13,53V47H11v5.5L7.40039,55.2002l1.19922,1.5996Z"/><rect x="8" y="10" width="2" height="2"/><path d="M54.59961,1.2002A.99955.99955,0,0,0,53,2V4H2A.99943.99943,0,0,0,1,5v6a.99943.99943,0,0,0,1,1H6V10H3V6H54a.99943.99943,0,0,0,1-1V4l5.333,4L55,12V11a.99943.99943,0,0,0-1-1H12v2H53v2a.99951.99951,0,0,0,1.59961.7998l8-6a.999.999,0,0,0,0-1.5996Z"/><path d="M58,54V20a2.0026,2.0026,0,0,0-2-2H15a2.0026,2.0026,0,0,0-2,2V41h2V20H56V54H24v2H56A2.0026,2.0026,0,0,0,58,54Z"/><path d="M45,35a.99943.99943,0,0,0-1,1V51a.99943.99943,0,0,0,1,1h5a.99943.99943,0,0,0,1-1V36a.99943.99943,0,0,0-1-1Zm4,15H46V37h3Z"/><path d="M35,38a.99943.99943,0,0,0-1,1V51a.99943.99943,0,0,0,1,1h5a.99943.99943,0,0,0,1-1V39a.99943.99943,0,0,0-1-1Zm4,12H36V40h3Z"/><path d="M25,34a.99943.99943,0,0,0-1,1V51a.99943.99943,0,0,0,1,1h5a.99943.99943,0,0,0,1-1V35a.99943.99943,0,0,0-1-1Zm4,16H26V36h3Z"/><path d="M21,27a3,3,0,1,0,3,3,2.94165,2.94165,0,0,0-.03638-.36l4.9563-2.48645a2.96366,2.96366,0,0,0,4.05567.08631l4.07421,2.26721a2.99041,2.99041,0,1,0,5.93494.644l4.60254-1.38482a2.99925,2.99925,0,1,0-.572-1.9173l-4.60254,1.38482a2.96372,2.96372,0,0,0-4.38831-.47363L33.9502,25.49292A2.99586,2.99586,0,1,0,28,25a2.94165,2.94165,0,0,0,.03638.36l-4.9563,2.48645A2.98547,2.98547,0,0,0,21,27Zm0,4a1,1,0,1,1,1-1A1.00067,1.00067,0,0,1,21,31Zm29-5a1,1,0,1,1-1,1A1.00067,1.00067,0,0,1,50,26ZM40,29a1,1,0,1,1-1,1A1.00067,1.00067,0,0,1,40,29Zm-9-5a1,1,0,1,1-1,1A1.00067,1.00067,0,0,1,31,24Z"/></svg>
