<svg id="Layer_1" enable-background="new 0 0 512 512" viewBox="0 0 512 512" xmlns="http://www.w3.org/2000/svg"><path d="m511 143.01c0-71.6-58.25-129.85-129.85-129.85s-129.85 58.25-129.85 129.85c0 24.4 6.77 47.24 18.52 66.76l-63.58 69.62-81.1-54.35c-3.5-2.35-8.23-1.57-10.79 1.77l-86.83 112.89c-2.69 3.5-2.04 8.52 1.46 11.22 1.45 1.12 3.17 1.66 4.87 1.66 2.4 0 4.77-1.07 6.35-3.12l82.25-106.94 80.6 54.01c3.29 2.2 7.69 1.67 10.36-1.25l65.74-71.99c19.37 24.56 47.41 41.98 79.45 47.62v31.5h-1c-2.72 0-5.28 1.06-7.2 2.99s-2.98 4.48-2.98 7.2v152.53c0 8.98 3.52 17.45 9.9 23.83 6.39 6.38 14.85 9.9 23.83 9.9 18.6 0 33.73-15.13 33.73-33.73v-152.55c0-5.62-4.57-10.18-10.18-10.18h-1v-31.5c60.89-10.71 107.3-63.98 107.3-127.89zm-220.9 68.28 9.46-10.36 1.91-1.26c17.75 24.89 46.85 41.15 79.68 41.15 53.93 0 97.81-43.88 97.81-97.81s-43.88-97.81-97.81-97.81-97.81 43.88-97.81 97.81c0 15.38 3.57 29.95 9.93 42.91l-3.33 2.19c-.56.37-1.07.8-1.51 1.29l-7.28 7.97c-8.82-16.16-13.84-34.69-13.84-54.36 0-62.78 51.07-113.85 113.85-113.85s113.84 51.07 113.84 113.85-51.07 113.85-113.85 113.85c-37.18 0-70.26-17.92-91.05-45.57zm86.89-34.8c.56.12 1.11.17 1.65.17 3.7 0 7.03-2.59 7.82-6.36l7.54-35.86c.47-2.26-.05-4.61-1.43-6.45s-3.5-3-5.8-3.17l-36.54-2.73c-4.39-.34-8.25 2.97-8.57 7.38-.33 4.41 2.97 8.25 7.38 8.57l15.33 1.15-57.59 37.84c-4.76-10.37-7.44-21.89-7.44-34.03 0-45.11 36.7-81.81 81.81-81.81s81.81 36.7 81.81 81.81-36.7 81.81-81.81 81.81c-27.25 0-51.41-13.4-66.29-33.95l59.09-38.83-3.15 14.97c-.9 4.34 1.87 8.58 6.19 9.49zm21.89 141.91v17.14h-35.46v-17.14zm-17.73 164.44c-4.71 0-9.15-1.85-12.52-5.22s-5.21-7.81-5.21-12.52v-113.56h35.46v113.57c0 9.78-7.95 17.73-17.73 17.73zm6.55-180.44h-13.1v-29.7c2.17.11 4.35.16 6.55.16s4.38-.06 6.55-.16zm-159.64 39.14h-41.12c-6.78 0-12.3 5.52-12.3 12.3v132.71c0 6.78 5.52 12.3 12.3 12.3h41.12c6.78 0 12.3-5.52 12.3-12.3v-132.71c0-6.79-5.51-12.3-12.3-12.3zm-3.7 141.3h-33.72v-125.3h33.72zm-83.12-182.58h-41.12c-6.78 0-12.3 5.52-12.3 12.3v173.98c0 6.78 5.52 12.3 12.3 12.3h41.12c6.78 0 12.3-5.52 12.3-12.3v-173.98c0-6.78-5.52-12.3-12.3-12.3zm-3.7 182.58h-33.72v-166.58h33.72zm-83.12-86.6h-41.12c-6.78 0-12.3 5.52-12.3 12.3v78c0 6.78 5.52 12.3 12.3 12.3h41.12c6.78 0 12.3-5.52 12.3-12.3v-78c0-6.78-5.52-12.3-12.3-12.3zm-3.7 86.6h-33.72v-70.6h33.72zm264.17-216.4h-41.12c-6.78 0-12.3 5.52-12.3 12.3v207.8c0 6.78 5.52 12.3 12.3 12.3h41.12c6.78 0 12.3-5.52 12.3-12.3v-207.8c0-6.78-5.52-12.3-12.3-12.3zm-3.7 216.4h-33.72v-200.4h33.72z"/></svg>