<svg fill="none" height="512" viewBox="0 0 24 24" width="512" xmlns="http://www.w3.org/2000/svg"><path d="m8 8v-3.5c0-1.38071 1.11929-2.5 2.5-2.5h9c1.3807 0 2.5 1.11929 2.5 2.5v9c0 1.3807-1.1193 2.5-2.5 2.5h-3.5v3.5c0 1.3807-1.1193 2.5-2.5 2.5h-9c-1.38071 0-2.5-1.1193-2.5-2.5v-9c0-1.38071 1.11929-2.5 2.5-2.5zm1 .5c0 .27614-.22386.5-.5.5h-4c-.82843 0-1.5.67157-1.5 1.5v9c0 .8284.67157 1.5 1.5 1.5h9c.8284 0 1.5-.6716 1.5-1.5v-4c0-.2761.2239-.5.5-.5h4c.8284 0 1.5-.6716 1.5-1.5v-9c0-.82843-.6716-1.5-1.5-1.5h-9c-.82843 0-1.5.67157-1.5 1.5zm4.5.5c-.2761 0-.5-.22386-.5-.5s.2239-.5.5-.5c1.3807 0 2.5 1.11929 2.5 2.5 0 .2761-.2239.5-.5.5s-.5-.2239-.5-.5c0-.82843-.6716-1.5-1.5-1.5zm-5.5 4.5c0-.2761.22386-.5.5-.5s.5.2239.5.5c0 .8284.67157 1.5 1.5 1.5.2761 0 .5.2239.5.5s-.2239.5-.5.5c-1.38071 0-2.5-1.1193-2.5-2.5zm4.5 2.5c-.2761 0-.5-.2239-.5-.5s.2239-.5.5-.5h1c.2761 0 .5.2239.5.5s-.2239.5-.5.5zm-2-7c-.2761 0-.5-.22386-.5-.5s.2239-.5.5-.5h1c.2761 0 .5.22386.5.5s-.2239.5-.5.5zm-2.5 1.5c0-.2761.22386-.5.5-.5s.5.2239.5.5v1c0 .2761-.22386.5-.5.5s-.5-.2239-.5-.5zm7 2c0-.2761.2239-.5.5-.5s.5.2239.5.5v1c0 .2761-.2239.5-.5.5s-.5-.2239-.5-.5z" fill="rgb(0,0,0)"/></svg>