<svg enable-background="new 0 0 512 512" viewBox="0 0 512 512" xmlns="http://www.w3.org/2000/svg"><g id="_x30_2_Machine_Learning"><g><path d="m479.669 223.197c-11.018 0-20.269 7.211-23.49 17.088h-80.417v-23.307h40.858c4.159 0 7.529-3.37 7.529-7.529v-36.998h22.77c3.564 9.275 12.544 15.909 23.112 15.909 13.674 0 24.797-11.056 24.797-24.647 0-13.561-11.123-24.596-24.797-24.596-11.457 0-21.031 7.786-23.865 18.275h-29.547c-4.159 0-7.53 3.37-7.53 7.529v36.998h-33.344c-.161-18.214-15.036-32.986-33.316-32.986h-.623v-36.718c9.99-3.184 17.289-12.395 17.289-23.368 0-13.561-11.123-24.596-24.797-24.596-13.701 0-24.848 11.034-24.848 24.596 0 10.962 7.301 20.167 17.297 23.359v36.728h-32.54v-80.452c9.97-3.195 17.25-12.397 17.25-23.356 0-13.561-11.123-24.596-24.797-24.596s-24.797 11.034-24.797 24.596c0 10.971 7.297 20.181 17.284 23.366v80.441h-32.111v-53.241c0-35.341-29.231-64.094-65.158-64.094-27.388 0-51.621 16.873-61.01 41.741-38.609-1.76-72.895 29.099-72.895 68.996 0 7.302 1.169 14.458 3.48 21.365-26.236 10.414-43.922 35.647-43.922 63.976 0 25.91 14.761 49.292 37.615 61.075.658 1.359 1.702 2.488 3.014 3.244-11.53 57.243 21.842 105.957 59.914 105.957 6.154 0 12.177-1.199 17.993-3.574 9.895 22.353 32.517 37.312 57.834 37.312 34.814 0 63.135-27.861 63.135-62.108v-50.535h36.797v84.466c-9.971 3.188-17.253 12.371-17.253 23.308 0 13.591 11.123 24.647 24.797 24.647s24.797-11.056 24.797-24.647c0-10.947-7.296-20.137-17.282-23.317v-84.456h23.701v45.366c0 4.159 3.37 7.529 7.529 7.529h37.459v22.399c-9.364 3.518-16.069 12.438-16.069 22.942 0 13.591 11.123 24.647 24.797 24.647s24.797-11.056 24.797-24.647c0-11.378-7.869-20.886-18.466-23.682v-29.189c0-4.159-3.37-7.529-7.529-7.529h-37.459v-37.836h4.775c18.38 0 33.331-14.951 33.331-33.329v-3.262h36.245c3.224 9.893 12.473 17.115 23.488 17.115 13.674 0 24.797-11.056 24.797-24.645 0-13.591-11.123-24.647-24.797-24.647-11.015 0-20.265 7.223-23.488 17.118h-36.245v-32.054h80.426c3.23 9.883 12.474 17.096 23.482 17.096 13.674 0 24.797-11.056 24.797-24.647.003-13.562-11.12-24.596-24.794-24.596zm-9.637-69.02c5.37 0 9.738 4.277 9.738 9.537 0 5.287-4.368 9.588-9.738 9.588s-9.74-4.302-9.74-9.588c-.001-5.26 4.369-9.537 9.74-9.537zm-238.052 34.309c-8.934-8.82-20.65-14.06-33.4-14.753-4.091-.306-7.701 2.953-7.927 7.108-.228 4.152 2.956 7.701 7.108 7.927 9.814.534 18.782 4.814 25.255 12.047 9.862 11.018 8.422 21.852 8.963 26.566v162.203c0 25.944-21.566 47.049-48.076 47.049-21.679 0-40.748-14.326-46.373-34.839-.63-2.292-2.306-4.154-4.52-5.02-2.288-.891-4.773-.596-6.728.623-5.848 3.647-11.973 5.498-18.206 5.498-30.68 0-55.298-44.314-44.552-90.608 22.781-4.006 40.745-22.927 42.194-46.636.255-4.152-2.904-7.723-7.054-7.976-4.157-.255-7.721 2.907-7.976 7.054-1.089 17.751-15.423 31.636-33.048 33.133-21.045-8.075-35.049-27.945-35.049-50.185 0-22.448 14.308-42.396 35.395-50.322 9.632 8.502 21.9 12.882 34.248 12.882 11.831 0 23.711-3.99 33.358-12.137 3.177-2.684 3.578-7.434.895-10.61-2.684-3.174-7.427-3.576-10.61-.895-13.7 11.565-33.72 11.28-47.089.18-.587-2.776-5.755-10.351-5.755-24.44 0-30.208 25.374-54.355 55.688-53.978 7.27 24.483 32.487 40.313 58.796 35.407 4.088-.767 6.782-4.699 6.017-8.787-.767-4.086-4.691-6.762-8.787-6.017-18.529 3.478-36.488-7.579-41.608-24.967.092-.241.258-.436.326-.69 5.753-21.576 25.66-36.645 48.415-36.645 27.625 0 50.099 21.998 50.099 49.035v72.793zm144.332 239.262c5.37 0 9.738 4.277 9.738 9.537 0 5.287-4.368 9.588-9.738 9.588s-9.738-4.302-9.738-9.588c.001-5.26 4.368-9.537 9.738-9.537zm-51.802-318.9c0-5.257 4.392-9.537 9.789-9.537 5.37 0 9.738 4.279 9.738 9.537 0 5.287-4.368 9.588-9.738 9.588-5.396 0-9.789-4.301-9.789-9.588zm-47.586-43.721c0-5.257 4.368-9.537 9.738-9.537s9.738 4.279 9.738 9.537c0 5.287-4.368 9.588-9.738 9.588s-9.738-4.301-9.738-9.588zm24.194 381.695c0 5.287-4.368 9.588-9.738 9.588s-9.738-4.302-9.738-9.588c0-5.257 4.368-9.537 9.738-9.537s9.738 4.279 9.738 9.537zm59.584-141.102c0 10.074-8.196 18.27-18.272 18.27h-95.391v-139.997h95.391c10.076 0 18.272 8.174 18.272 18.221zm74.792-20.38c5.37 0 9.738 4.302 9.738 9.588 0 5.287-4.368 9.586-9.738 9.586s-9.738-4.299-9.738-9.586c.001-5.287 4.368-9.588 9.738-9.588zm44.175-27.959c-5.37 0-9.738-4.301-9.738-9.588 0-5.26 4.368-9.537 9.738-9.537s9.738 4.277 9.738 9.537c0 5.287-4.368 9.588-9.738 9.588z"/><path d="m180.918 288.906c1.1 19.497-14.128 36.235-34.165 37.326-4.152.225-7.336 3.775-7.108 7.927.218 4.012 3.539 7.12 7.51 7.12.137 0 .277-.002.417-.012 28.48-1.549 49.945-25.516 48.38-53.209-.233-4.152-3.855-7.338-7.941-7.093-4.151.235-7.328 3.789-7.093 7.941z"/></g></g><g id="Layer_1"/></svg>