<svg version="1.1" id="Layer_1" xmlns="http://www.w3.org/2000/svg" xmlns:xlink="http://www.w3.org/1999/xlink" x="0px" y="0px" viewBox="0 0 512 512" style="enable-background:new 0 0 512 512;" xml:space="preserve">
<g>
	
		<ellipse transform="matrix(0.7071 -0.7071 0.7071 0.7071 -171.5188 230.8843)" style="fill:none;stroke:#000000;stroke-width:20;stroke-linecap:round;stroke-linejoin:round;stroke-miterlimit:10;" cx="192.943" cy="322.484" rx="101.594" ry="101.594"/>
	
		<circle style="fill:none;stroke:#000000;stroke-width:20;stroke-linecap:round;stroke-linejoin:round;stroke-miterlimit:10;" cx="192.943" cy="322.484" r="61.139"/>
	<path style="fill:none;stroke:#000000;stroke-width:20;stroke-linecap:round;stroke-linejoin:round;stroke-miterlimit:10;" d="&#10;&#9;&#9;M135.651,408.866l-86.055,86.055c-8.033,8.033-21.057,8.033-29.09,0l0,0c-8.033-8.033-8.033-21.057,0-29.09l86.055-86.055"/>
	<path style="fill:none;stroke:#000000;stroke-width:20;stroke-linecap:round;stroke-linejoin:round;stroke-miterlimit:10;" d="&#10;&#9;&#9;M293.133,339.047c6.198,0.863,12.537,1.304,18.977,1.304c65.797,0,120.741-46.419,133.868-108.31&#10;&#9;&#9;c0.985-4.643,5.062-7.976,9.809-7.976h36.181c6.224,0,10.926,5.608,9.889,11.745C486.5,326.714,407.382,395.947,312.11,395.947&#10;&#9;&#9;c-15.155,0-29.909-1.755-44.051-5.065"/>
	<path style="fill:none;stroke:#000000;stroke-width:20;stroke-linecap:round;stroke-linejoin:round;stroke-miterlimit:10;" d="&#10;&#9;&#9;M124.661,247.254c-3.27-14.052-4.995-28.705-4.995-43.75c0-48.945,18.274-93.624,48.363-127.594&#10;&#9;&#9;c3.812-4.304,10.49-4.45,14.555-0.384l25.182,25.189c3.692,3.693,3.955,9.619,0.55,13.579&#10;&#9;&#9;c-20.602,23.957-33.055,55.126-33.055,89.211c0,6.369,0.431,12.628,1.274,18.766"/>
	<path style="fill:none;stroke:#000000;stroke-width:20;stroke-linecap:round;stroke-linejoin:round;stroke-miterlimit:10;" d="&#10;&#9;&#9;M469.096,92.161c16.404,23.087,27.842,49.949,32.759,79.027c1.038,6.138-3.664,11.746-9.889,11.746h-36.183&#10;&#9;&#9;c-4.747,0-8.824-3.333-9.809-7.976c-13.129-61.886-68.072-108.311-133.865-108.311c-20.731,0-40.382,4.611-57.989,12.861&#10;&#9;&#9;c-3.83,1.795-8.369,1.012-11.359-1.979l-26.392-26.399c-4.686-4.687-3.641-12.592,2.147-15.821&#10;&#9;&#9;c27.701-15.453,59.62-24.258,93.593-24.258c32.307,0,62.755,7.961,89.489,22.029"/>
	<path style="fill:none;stroke:#000000;stroke-width:20;stroke-linecap:round;stroke-linejoin:round;stroke-miterlimit:10;" d="&#10;&#9;&#9;M352.174,395.948l24.559,77.774c2.635,8.346,10.377,14.019,19.129,14.019h84.274"/>
	
		<line style="fill:none;stroke:#000000;stroke-width:20;stroke-linecap:round;stroke-linejoin:round;stroke-miterlimit:10;" x1="414.034" y1="447.287" x2="480.136" y2="447.287"/>
	
		<line style="fill:none;stroke:#000000;stroke-width:20;stroke-linecap:round;stroke-linejoin:round;stroke-miterlimit:10;" x1="124.529" y1="146.275" x2="10" y2="146.275"/>
	
		<line style="fill:none;stroke:#000000;stroke-width:20;stroke-linecap:round;stroke-linejoin:round;stroke-miterlimit:10;" x1="75.065" y1="105.82" x2="10" y2="105.82"/>
	
		<line style="fill:none;stroke:#000000;stroke-width:20;stroke-linecap:round;stroke-linejoin:round;stroke-miterlimit:10;" x1="438.991" y1="58.706" x2="438.991" y2="58.706"/>
</g>
<g>
</g>
<g>
</g>
<g>
</g>
<g>
</g>
<g>
</g>
<g>
</g>
<g>
</g>
<g>
</g>
<g>
</g>
<g>
</g>
<g>
</g>
<g>
</g>
<g>
</g>
<g>
</g>
<g>
</g>
</svg>