<svg version="1.2" xmlns="http://www.w3.org/2000/svg" viewBox="0 0 1544 844" width="1544" height="844">
	<title>dxcdd-svg</title>
	<style>
		.s0 { fill: #010101 } 
		.s1 { fill: #603494 } 
	</style>
	<g id="Logo_and_Copy">
		<g id="Layer">
			<path id="Layer" fill-rule="evenodd" class="s0" d="m70 735.2v105.9h-29.2v-105.9h-40.5v-26.9h110v26.9zm79.5 105.9v-132.8h100.3v26.1h-71.2v26.9h62.5v26h-62.5v27.9h72.1v26.1h-101.2c0 0 0-0.2 0-0.2zm207.3 2.4c-39.2 0-68.2-30.3-68.2-68.5v-0.3c0-37.8 28.5-68.7 69.2-68.7 25.1 0 40 8.3 52.4 20.6l-18.5 21.4c-10.3-9.3-20.8-15-34.1-15-22.4 0-38.5 18.6-38.5 41.4v0.3c0 22.7 15.8 41.8 38.5 41.8 15.1 0 24.6-6.1 34.9-15.6l18.6 18.8c-13.5 14.6-28.7 23.8-54.3 23.8zm178.3-2.4v-53.3h-54v53.3h-29.2v-132.8h29.2v52.6h54v-52.6h29.2v132.8zm174.2 0l-64.4-84.5v84.5h-28.8v-132.8h26.8l62.3 81.9v-81.9h28.8v132.8zm137.8 2.4c-41 0-70.4-30.6-70.4-68.5v-0.3c0-37.8 29.9-68.7 70.9-68.7 41 0 70.4 30.5 70.4 68.4v0.3c-0.2 37.9-29.9 68.8-70.9 68.8zm40.2-68.8c0-22.7-16.8-41.8-40.2-41.8-23.6 0-39.8 18.6-39.8 41.3v0.3c0 22.8 16.7 41.9 40.1 41.9 23.4 0 39.9-18.6 39.9-41.4zm72.5 66.5v-132.9h29.2v106.3h66.2v26.6zm194 2.3c-41 0-70.4-30.6-70.4-68.4v-0.4c0-37.8 29.9-68.7 70.9-68.7 41 0 70.4 30.6 70.4 68.4v0.3c-0.2 37.9-29.9 68.8-70.9 68.8zm40.2-68.8c0-22.7-16.8-41.8-40.2-41.8-23.5 0-39.8 18.6-39.8 41.3v0.4c0 22.7 16.7 41.8 40.2 41.8 23.4 0 39.8-18.6 39.8-41.3zm135.7 68.7c-41.3 0-69.8-29-69.8-68.4v-0.3c0-37.9 29.3-68.8 69.7-68.8 23.9 0 38.3 6.5 52.1 18.3l-18.4 22.2c-10.3-8.4-19.5-13.4-34.7-13.4-21.3 0-38.2 18.7-38.2 41.3v0.4c0 24.2 16.8 42.1 40.2 42.1 10.6 0 20-2.6 27.5-7.9v-19h-29.4v-25.2h57.8v57.8c-13.8 11.4-32.5 20.9-56.8 20.9zm163-55.3v53h-29.2v-52.5l-51.1-80.5h34.2l31.7 53.3 32.2-53.3h33.1z"/>
			<path id="Layer" fill-rule="evenodd" class="s1" d="m510.6 345c-3.5 23.4-10.1 46.3-20.6 68.9-15.2 34.5-36.5 67.8-65 95.7-53.8 54.4-134.1 89-216.3 89h-207.8v-119.6h207.7c49.1 0 96.2-18.6 128.1-51.8 23-23.4 39.1-52 47.4-82.2zm-126.4-91.2c-8.3-30.2-24.4-58.7-47.5-82.2-31.9-33.2-79-51.8-128.1-51.8h-207.6v-119.5h207.6c82.3 0 162.6 34.5 216.4 89 28.5 27.9 49.8 61.1 65.1 95.6 10.4 22.6 17 45.5 20.5 68.9 0 0-126.4 0-126.4 0zm387.2 145l-158.7 199.8h-157.3l237.5-299.1-237.4-299.2h157.4l158.6 199.6 158.5-199.6h157.3l-237.6 299.2 237.5 299.1h-157.4zm387.2-53.9c8.3 30.3 24.4 58.8 47.5 82.2 31.8 33.2 79 51.8 128.1 51.8h207.6v119.6h-207.6c-82.3 0-162.6-34.5-216.2-89-28.6-27.9-49.8-61.1-65.1-95.6-10.4-22.6-17.1-45.5-20.6-69zm0-91.1h-126.3c3.5-23.4 10.2-46.3 20.6-68.9 15.3-34.6 36.5-67.8 65.1-95.7 53.6-54.4 133.9-89 216.2-89h207.6v119.6h-207.6c-49.1 0-96.2 18.6-128.1 51.8-23.1 23.4-39.2 52-47.5 82.2z"/>
		</g>
	</g>
</svg>