<svg version="1.2" xmlns="http://www.w3.org/2000/svg" viewBox="0 0 1578 280" width="1578" height="280">
	<title>Honeywell_logo-svg</title>
	<style>
		.s0 { fill: #de1e34 } 
	</style>
	<g id="g7">
		<path id="polygon9" class="s0" d="m1429.6 213.6v-213.6h60v213.6h-60z"/>
		<path id="polygon11" class="s0" d="m1577.7 0v213.6h-59.9v-213.6h59.9z"/>
		<path id="polygon13" class="s0" d="m127.8 83v-83h79.3v213.6h-79.3v-105.9h-48.5v105.9h-79.3v-213.6h79.3v83h48.5z"/>
		<path id="path15" fill-rule="evenodd" class="s0" d="m603.8 117.4v96.2h-65.3v-98c0-19.4-11.4-21.2-20.2-21.2-10.6 0-23 10.6-23 30v89.2h-65.2v-148.3h65.2l4.9 14.1c43.2-37 103.6-15.9 103.6 38z"/>
		<path id="path17" fill-rule="evenodd" class="s0" d="m1199.2 65.3h26l-50.7 148.3h-45l-29.9-85.2-29.1 85.2h-47.6l-52.3-147.7-72.4 175.5c-4.5 11-17.7 37.1-49 38.4-31.3 1.3-47.1-19.4-47.2-35.3 0-15.2 12.3-27.5 27.4-27.5 15.1 0 27.4 12.3 27.4 27.5 1.9 8.4 11.4 7.9 15.4-0.9l11.4-28.2-87.7-150.1h74.5l44.1 75.5 31.3-75.5h24.6 0.5 62.1l31.7 89.6 30.5-89.6h44.5l30.4 86.1z"/>
		<path id="path19" fill-rule="evenodd" class="s0" d="m319.5 223.8c-50 0-90.4-37.1-90.4-83 0-45.9 40.4-83 90.4-83 50 0 90.4 37.1 90.4 83 0 45.9-40.4 83-90.4 83zm22.5-121.9c0-12.4-10.1-22.5-22.5-22.5-12.4 0-22.5 10.1-22.5 22.5v77.7c0 12.4 10.1 22.5 22.5 22.5 12.4 0 22.5-10.1 22.5-22.5z"/>
		<path id="path21" fill-rule="evenodd" class="s0" d="m691 152.7v26.9c0 12.4 10.1 24.2 22.5 24.2 25.3 0 47.4-12.4 59.5-30.8l19.9 7.4c-15.3 25.8-45.1 43.4-79.4 43.4-49.9 0-90.4-37.2-90.4-83 0-45.9 40.5-83 90.4-83 49.9 0 90.4 37.1 90.4 83 0 3.6-0.3 8.4-0.8 11.9zm0-21.2h45v-29.6c0-12.4-10.1-22.5-22.5-22.5-12.4 0-22.5 10.1-22.5 22.5z"/>
		<path id="path23" fill-rule="evenodd" class="s0" d="m1294.8 152.7v26.9c0 12.4 10.1 24.2 22.5 24.2 25.3 0 47.4-12.4 59.4-30.8l20 7.4c-15.3 25.8-45.1 43.4-79.4 43.4-49.9 0-90.4-37.2-90.4-83 0-45.9 40.5-83 90.4-83 49.9 0 90.3 37.1 90.3 83 0 3.6-0.2 8.4-0.7 11.9zm0-21.2h45v-29.6c0-12.4-10.1-22.5-22.5-22.5-12.4 0-22.5 10.1-22.5 22.5z"/>
	</g>
</svg>