<svg version="1.2" xmlns="http://www.w3.org/2000/svg" viewBox="0 0 1545 289" width="1545" height="289">
	<title>Deloitte-svg</title>
	<style>
		.s0 { fill: #86bc24 } 
		.s1 { fill: #0f0b0b } 
	</style>
	<g id="layer1">
		<g id="g3359">
			<g id="g3371">
				<path id="path3356" class="s0" d="m1503.9 288.7c-22.6 0-40.9-18.3-40.9-40.9 0-22.6 18.3-40.9 40.9-40.9 22.7 0 40.9 18.3 40.9 40.9 0 22.6-18.2 40.9-40.9 40.9z"/>
				<path id="path3360" fill-rule="evenodd" class="s1" d="m234.8 136.9q0 70.7-38.1 109-38.1 38.3-107.1 38.3h-89.4v-282.7h95.6q66.6 0 102.8 34.8 36.2 34.8 36.2 100.6zm-77.5 2.7q0-38.9-15.1-57.7c-10-12.5-25.2-18.7-45.6-18.7h-21.8v158.3h16.7q34 0 49.9-20.2 15.9-20.2 15.9-61.7zm325.2-139.3h71.2v283.9h-71.2zm304.7 177.9q0 51.7-27.2 80.7-27.2 28.9-76.1 28.9-47 0-74.7-29.6-27.8-29.6-27.8-80 0-51.5 27.2-80.1 27.2-28.6 76.4-28.6 30.3 0 53.6 13.3 23.3 13.2 36 37.8 12.6 24.7 12.6 57.6zm-133.5 0q0 27.2 7.1 41.4 7.1 14.2 23.8 14.2 16.6 0 23.4-14.2 6.8-14.2 6.8-41.4 0-27-6.9-40.7-6.9-13.8-23.7-13.8c-10.9 0-18.7 4.6-23.4 13.7q-7.1 13.6-7.1 40.8zm161.8-104.9h71.2v210.8h-71.2zm0-73h71.2v47.5h-71.2zm215.4 230c9.6 0 21-2.4 34.4-7.2v53q-14.4 6.3-27.4 9-13.1 2.7-30.5 2.7-35.9 0-51.7-17.9-15.8-18-15.8-55.2v-86.9h-25v-54.5h25v-53.8l71.7-12.5v66.3h45.4v54.5h-45.4v82.1q0 20.4 19.3 20.4zm164.7 0c9.6 0 21-2.4 34.4-7.2v53q-14.4 6.3-27.4 9c-8.7 1.8-18.8 2.7-30.5 2.7q-35.8 0-51.7-17.9-15.8-18-15.8-55.2v-86.9h-25v-54.5h25v-54.6l71.7-11.7v66.3h45.4v54.5h-45.4v82.1q0 20.4 19.3 20.4zm249.9-64.3v32.3h-127.2q0.8 17.7 12.7 27.8 11.9 10 32.5 10 18.7 0 34.4-3.6c7.3-1.7 15-4.2 23-7.5l11 47.5q-16.7 8.7-34.4 12-17.8 3.3-42.6 3.3-51.5 0-80-28-28.5-28-28.5-79.7 0-53.4 26.4-82 26.4-28.5 75.4-28.5 46.6 0 71.9 24.8 25.4 24.8 25.4 71.6zm-64.6-13.4q-0.3-15.3-8.4-24.4-8.1-9.1-21.8-9.1-12.5 0-21 8.1-8.5 8.1-9.9 25.4zm-925.9 13.4v32.3h-127.2q0.7 17.7 12.6 27.8 11.9 10 32.5 10 18.7 0 34.5-3.6c7.2-1.7 14.9-4.2 23-7.5l10.9 47.5q-16.6 8.7-34.4 12-17.8 3.3-42.5 3.3-51.6 0-80-28-28.5-28-28.5-79.7 0-53.4 26.4-82 26.3-28.5 75.3-28.5 46.6 0 72 24.8 25.4 24.8 25.4 71.6zm-64.6-13.4q-0.4-15.3-8.5-24.4-8.1-9.1-21.7-9.1-12.6 0-21.1 8.1-8.4 8.1-9.9 25.4z"/>
			</g>
		</g>
	</g>
</svg>