<svg version="1.2" xmlns="http://www.w3.org/2000/svg" viewBox="0 0 1548 297" width="1548" height="297">
	<title>LTIMindtree_Linear_2-1-LT-Blue-1-1-svg</title>
	<style>
		.s0 { fill: #004c88 } 
	</style>
	<g id="#004c88ff">
		<path id="Layer" fill-rule="evenodd" class="s0" d="m131.4 1.3c28.3-3.2 57.5 1.9 82.9 14.8 32.3 16.2 58.3 44.5 71.5 78.2 11.4 28.7 13.2 61.2 5.4 91.1-8 30.9-26.3 59-51.4 78.7-22.3 17.8-49.8 28.9-78.3 31.4-35.1 3.4-71.4-6.4-99.9-27.3-27.3-19.6-47.5-48.6-56.2-80.9-9.7-35.4-5.8-74.4 11.2-107 22.1-43.2 66.5-74 114.8-79zm1.8 18.9c-21.3 36.4-42.4 72.9-63.5 109.5 26.2 0.1 52.4 0 78.6 0-7.1 12.5-14.3 24.8-21.5 37.2-33.5-0.1-67 0-100.5-0.1 27.1-47 54.3-93.9 81.4-140.9-25.6 8.6-48.4 25.1-64.1 47-15.8 21.8-24.9 48.6-24.5 75.6-0.3 30.4 11.3 60.6 31.1 83.6 19.5 22.8 47.1 38.6 76.8 43.3 2.3-2 3.4-5.2 5.1-7.8 19.3-33.6 38.6-67.2 58-100.7-14.2-0.1-28.4 0-42.5-0.1 7-12.3 14.2-24.7 21.3-37 33.5-0.1 67.1 0 100.6-0.1-7 12.5-14.2 24.7-21.3 37.2-12-0.1-24 0.1-36-0.2-21.5 36.8-42.6 73.8-63.7 110.8 25.1-0.4 50.1-7.9 71-22 26.6-17.7 46.2-45.6 53.9-76.6 6.5-26.1 4.4-54.3-5.9-79.2-10.9-26.5-30.9-49.2-55.8-63.4-23.6-13.6-51.5-19.2-78.5-16.1z"/>
		<path id="Layer" fill-rule="evenodd" class="s0" d="m1133.4 63.2c9.6 0.1 19.2 0 28.8 0-8.5 38.8-17 77.6-25.4 116.4-3.3 14.1-6.1 28.4-8.3 42.8-8.9-0.1-17.8 0-26.7-0.1 0.8-5.3 1.7-10.7 2.8-16-5.6 7.8-13.4 14.5-22.9 16.9-13 3.5-28.5 1.9-38.2-8.3-10.9-11.4-13.4-28.3-12-43.5 1.7-19.3 9.4-39.3 25.2-51.4 18.4-14.2 47.6-12.7 63 5.3 4.6-20.7 9.1-41.4 13.7-62.1zm-50.7 71.4c-8.5 3.7-13.6 12-17 20.2-4.2 10.7-5.9 22.8-2.9 34 1.6 6.2 6.1 12.5 12.9 13.4 9.5 1.3 18.7-4 24.5-11.3 7.2-9.2 10.9-21 11-32.7-0.2-6.7-1.9-13.8-6.4-19.1-5.2-6.3-14.8-7.8-22.1-4.5zm-216-41.2c1.9-9.1 3.9-18.2 5.9-27.3q14.4 0 28.8 0c-2 9.1-3.9 18.2-6 27.4-9.6-0.1-19.2-0.1-28.7-0.1zm-385.3-19.1q57.3 0 114.5 0c-1.6 7.8-3.3 15.7-4.9 23.6-13.9 0-27.8-0.1-41.7 0.1-8.9 41.4-18 82.9-26.9 124.3q-15.6 0.1-31.3 0c8.8-41.5 17.9-82.9 26.8-124.4-13.9 0-27.8 0-41.6 0 1.7-7.9 3.4-15.8 5.1-23.6zm308.9-0.1c16.5 0.1 33.1 0 49.6 0.1-10.5 49.3-21.1 98.7-31.6 148-10.6 0-21.2 0.1-31.8 0 9.4-40.7 18.5-81.5 28-122.2-22.2 40.8-44.6 81.5-66.8 122.2-9.6 0-19.2 0-28.7 0.1q-6-61.2-11.9-122.3c-9.1 40.7-18 81.5-27.1 122.2q-14.3 0.1-28.6 0c10.4-49.3 20.9-98.7 31.4-148.1 16.4 0.1 32.9 0 49.3 0.1 3.1 35.4 6.8 70.8 9.7 106.3 19.8-35.3 38.8-71 58.5-106.4zm-421.1 148.1c10.6-49.3 20.9-98.7 31.5-148 10 0 20-0.1 30 0-8.7 41.5-17.6 82.9-26.4 124.4q29 0 57.9 0c-1.6 7.9-3.5 15.7-5.1 23.6-29.3 0-58.6 0.1-87.9 0zm241.6-148c10.5-0.1 20.9 0 31.4 0q-15.6 74-31.2 148c-10.4 0-20.9 0.1-31.4 0 10.4-49.3 20.9-98.7 31.2-148zm581.9 16.4c10.3-3.6 20.7-6.8 31-10.2-2.3 10.9-4.7 21.7-7 32.5q12.7 0 25.4 0c-1.6 7.1-3 14.2-4.6 21.2-8.5 0-16.9 0-25.4 0-3.5 16.8-7.3 33.5-10.8 50.2-1.1 5.4-1.9 12.6 3.5 16.1 6.2 3.9 13.9 1.1 20.4-0.5-1.7 7.4-3.4 14.8-4.9 22.2-11.3 3.3-23.9 4-34.7-1-6.9-3.1-11.8-9.7-13.1-17.1-1.5-9.5-0.2-19.2 1.8-28.5 3-13.8 6.1-27.6 9-41.4q-10.2 0.1-20.5 0c1.6-7.1 3-14.2 4.6-21.2q10.2 0 20.5 0c1.6-7.5 3.2-14.9 4.8-22.3zm-245.8 32.6c8.9-7.8 20.4-13.5 32.5-12.8 12.2 0 24.9 6 30.4 17.3 5.6 11.2 4.2 24.2 1.5 36-4.2 19.5-8.5 39-12.6 58.5q-14.5 0.1-29 0c4-18.4 7.7-36.9 11.5-55.4 1.5-7.6 3.1-15.5 1.9-23.2-1.6-6.7-8.4-11.2-15.1-10.8-8.4-0.2-16.2 4.6-20.8 11.4-6.1 8.9-8.3 19.7-10.5 30-3.4 16-6.8 32.1-10.2 48.1-9.6-0.1-19.2 0-28.8-0.1 7.5-36.4 16.3-72.7 23-109.3q14 0 28.1 0-0.9 5.2-1.9 10.3zm360.1-11.1c6.5-2.6 13.7-1.7 20.5-0.8q-3 14.1-5.9 28.2c-9.5-2.8-20.6-2.3-28.5 4.2-10.7 8.6-14.7 22.6-17 35.6q-4.5 21.5-8.9 42.9-14.5 0.1-28.9 0c7.3-36.4 15.5-72.7 22.1-109.3 9.2 0 18.3 0 27.5 0-1.3 7.1-2.5 14.2-4 21.2 4.1-10.1 12.9-18.1 23.1-22zm51.8 4.5c14.4-7.3 31.8-8.1 47.1-2.9 11.3 3.9 20.2 13.9 22.7 25.6 2.6 12.3 1 25.1-1.3 37.3q-38.4-0.1-76.7 0c-0.5 9.7 3.7 20.8 13.6 24.3 16.4 5.8 34.5 1.6 49.9-5.2-1.1 7.6-2.4 15.2-3.5 22.8-19.1 6.2-40.2 9.2-59.5 2.3-11.8-3.9-21.7-13.5-25.4-25.4-9.3-29.6 5.5-64.6 33.1-78.8zm16.1 16.3c-10.8 3.1-16.8 13.7-20.5 23.6 15.9 0.1 31.7 0 47.6 0.1 0.7-6.6 1.2-14.1-3.3-19.5-5.6-6.9-16-6.3-23.8-4.2zm102.7-16.8c13.3-6.6 29.2-7.3 43.4-3.2 11.5 3.3 21.4 12.4 24.5 24.1 3.5 12.9 1.8 26.6-0.7 39.6-25.6-0.1-51.1-0.1-76.7-0.1-0.5 9.8 3.8 20.9 13.7 24.4 16.4 5.8 34.5 1.5 50-5.2-1.3 7.6-2.5 15.2-3.7 22.9-18.6 5.9-39.2 8.9-58.2 2.7-11.9-3.7-22.1-12.8-26.2-24.7-10.3-30.2 5.1-66.6 33.9-80.5zm14.8 16.8c-10.8 3.2-16.8 13.7-20.4 23.6 15.9 0.1 31.8 0 47.6 0.1 0.7-6.6 1.2-14.1-3.3-19.5-5.7-6.9-16-6.2-23.9-4.2zm-630.2-20c9.6 0 19.2-0.1 28.8 0.1-7.7 36.4-15.5 72.9-23.3 109.3-9.6-0.1-19.2 0-28.8-0.1 7.7-36.4 15.6-72.8 23.3-109.3z"/>
	</g>
</svg>